<svg xmlns="http://www.w3.org/2000/svg" xmlns:xlink="http://www.w3.org/1999/xlink" viewBox="0 0 565.48 618.88"><defs><style>.cls-1{fill:none;}.cls-2{clip-path:url(#clip-path);}.cls-3{fill:url(#Degradado_sin_nombre_68);}</style><clipPath id="clip-path" transform="translate(9.64 1.64)"><path class="cls-1" d="M376.63.11a56.07,56.07,0,0,1,6.49.26c6.74.78,11.09,5.85,9.61,12.44-2.81,12.49-46.55,168.35-65.08,233.9-.72,2.56-1.58,5.09-2.37,7.63-2.17,7-4.63,11.17-16,11.3-35.33.4-188,.28-229,.13a120.92,120.92,0,0,1-15.45-1c-6.92-.91-11-5.67-11-12.63a29.09,29.09,0,0,1,1.11-7.86c13.85-49,55.76-198.07,62.85-223.57,1.07-3.84,2.27-7.65,3.65-11.4C123.92,2.57,127.83,0,135.65,0,176.31,0,337,.1,376.63.11ZM236.14,308c-2.49,0-5.31-.3-7.38.73a27.36,27.36,0,0,0-8.8,6.59c-1.91,2.3-2.67,5.69-3.52,8.71-8.83,31.42-61.54,219.67-64.79,232.41-2.25,8.85,1.31,14.13,10.32,15.89a45,45,0,0,0,8.44.72q118.25.18,236.49.26c8.12,0,14.12-4.36,16.29-12.12,8.76-31.26,51.57-185.61,64.19-231.54,4.39-16-.19-21.81-16.75-21.83C432,307.75,275.64,308,236.14,308Zm232.2-192.26c-19.32,0-38.64.1-58,0-12.74-.08-16.08,2.16-19.88,14.26-.2.64-.32,1.3-.5,1.94-5.24,18.75-26.95,95.28-32.3,114.87-2.81,10.29,1.5,16.73,11.69,18.33a46.21,46.21,0,0,0,6.95.57q56.48.19,112.94.3c13.06,0,16.57-2.49,20.36-15.19,4-13.55,26.15-90.69,33-115.75,3.55-13-1.44-19.16-14.8-19.24C508,115.67,468.34,115.74,468.34,115.73ZM52.24,307.55c-10.13,0-15.09,3.33-18.2,13-2.6,8.07-24.26,84-32.24,113.89-4.76,17.88-.52,22.81,18,22.91q54.24.28,108.47.38c3,0,6-.15,9-.33,7.85-.46,12.4-4.86,14.46-12.22,2.92-10.42,25.24-88.55,33.4-117.21,3.78-13.26-1.22-20-14.91-20.11C150.7,307.76,72.06,307.57,52.24,307.55Z"/></clipPath><linearGradient id="Degradado_sin_nombre_68" x1="487.42" y1="663.95" x2="78.07" y2="-45.07" gradientUnits="userSpaceOnUse"><stop offset="0" stop-color="#5464f7"/><stop offset="0.12" stop-color="#4e5de6"/><stop offset="0.35" stop-color="#3f4bbb"/><stop offset="0.67" stop-color="#282e75"/><stop offset="0.84" stop-color="#1a1e4d"/></linearGradient></defs><g id="Capa_2" data-name="Capa 2"><g id="Capa_1-2" data-name="Capa 1"><g class="cls-2"><rect class="cls-3" width="565.48" height="618.88"/></g></g></g></svg>